<mxfile host="app.diagrams.net" modified="2023-02-10T20:58:56.725Z" agent="5.0 (Macintosh; Intel Mac OS X 10_15_7) AppleWebKit/537.36 (KHTML, like Gecko) Chrome/109.0.0.0 Safari/537.36" etag="5lHPxBNGAoyyshFDWIuO" version="20.8.17" type="github" pages="2">
  <diagram name="Page-1" id="q6f4kFPtnzYlWvJz_7-R">
    <mxGraphModel dx="1434" dy="741" grid="1" gridSize="10" guides="1" tooltips="1" connect="1" arrows="1" fold="1" page="1" pageScale="1" pageWidth="850" pageHeight="1100" math="0" shadow="0">
      <root>
        <mxCell id="0" />
        <mxCell id="1" parent="0" />
        <mxCell id="mMiPT7Uxaxkni7jwJ802-2" value="" style="verticalLabelPosition=bottom;verticalAlign=top;html=1;shape=mxgraph.basic.patternFillRect;fillStyle=grid;step=10;fillStrokeWidth=0.5;fillStrokeColor=#000000;fillColor=#FF951C;" parent="1" vertex="1">
          <mxGeometry x="50" y="230" width="80" height="70" as="geometry" />
        </mxCell>
        <mxCell id="mMiPT7Uxaxkni7jwJ802-3" value="" style="verticalLabelPosition=bottom;verticalAlign=top;html=1;shape=mxgraph.basic.patternFillRect;fillStyle=grid;step=10;fillStrokeWidth=0.5;fillStrokeColor=#dddddd;" parent="1" vertex="1">
          <mxGeometry x="130" y="230" width="80" height="70" as="geometry" />
        </mxCell>
        <mxCell id="mMiPT7Uxaxkni7jwJ802-11" value="" style="verticalLabelPosition=bottom;verticalAlign=top;html=1;shape=mxgraph.basic.patternFillRect;fillStyle=grid;step=10;fillStrokeWidth=0.5;fillStrokeColor=#dddddd;" parent="1" vertex="1">
          <mxGeometry x="210" y="230" width="80" height="70" as="geometry" />
        </mxCell>
        <mxCell id="mMiPT7Uxaxkni7jwJ802-12" value="" style="verticalLabelPosition=bottom;verticalAlign=top;html=1;shape=mxgraph.basic.patternFillRect;fillStyle=grid;step=10;fillStrokeWidth=0.5;fillStrokeColor=#dddddd;" parent="1" vertex="1">
          <mxGeometry x="130" y="300" width="80" height="70" as="geometry" />
        </mxCell>
        <mxCell id="mMiPT7Uxaxkni7jwJ802-13" value="" style="verticalLabelPosition=bottom;verticalAlign=top;html=1;shape=mxgraph.basic.patternFillRect;fillStyle=grid;step=10;fillStrokeWidth=0.5;fillStrokeColor=#dddddd;" parent="1" vertex="1">
          <mxGeometry x="210" y="300" width="80" height="70" as="geometry" />
        </mxCell>
        <mxCell id="mMiPT7Uxaxkni7jwJ802-16" value="" style="verticalLabelPosition=bottom;verticalAlign=top;html=1;shape=mxgraph.basic.patternFillRect;fillStyle=grid;step=10;fillStrokeWidth=0.5;fillStrokeColor=#dddddd;" parent="1" vertex="1">
          <mxGeometry x="210" y="370" width="80" height="70" as="geometry" />
        </mxCell>
        <mxCell id="mMiPT7Uxaxkni7jwJ802-17" value="" style="verticalLabelPosition=bottom;verticalAlign=top;html=1;shape=mxgraph.basic.patternFillRect;fillStyle=grid;step=10;fillStrokeWidth=0.5;fillStrokeColor=#dddddd;" parent="1" vertex="1">
          <mxGeometry x="130" y="370" width="80" height="70" as="geometry" />
        </mxCell>
        <mxCell id="mMiPT7Uxaxkni7jwJ802-18" value="" style="verticalLabelPosition=bottom;verticalAlign=top;html=1;shape=mxgraph.basic.patternFillRect;fillStyle=grid;step=10;fillStrokeWidth=0.5;fillStrokeColor=#dddddd;" parent="1" vertex="1">
          <mxGeometry x="50" y="370" width="80" height="70" as="geometry" />
        </mxCell>
        <mxCell id="mMiPT7Uxaxkni7jwJ802-19" value="" style="verticalLabelPosition=bottom;verticalAlign=top;html=1;shape=mxgraph.basic.patternFillRect;fillStyle=grid;step=10;fillStrokeWidth=0.5;fillStrokeColor=#dddddd;" parent="1" vertex="1">
          <mxGeometry x="50" y="300" width="80" height="70" as="geometry" />
        </mxCell>
        <mxCell id="mMiPT7Uxaxkni7jwJ802-20" value="" style="verticalLabelPosition=bottom;verticalAlign=top;html=1;shape=mxgraph.basic.patternFillRect;fillStyle=grid;step=10;fillStrokeWidth=0.5;fillStrokeColor=#dddddd;" parent="1" vertex="1">
          <mxGeometry x="450" y="220" width="320" height="260" as="geometry" />
        </mxCell>
        <mxCell id="mMiPT7Uxaxkni7jwJ802-21" value="nx" style="text;html=1;strokeColor=none;fillColor=none;align=center;verticalAlign=middle;whiteSpace=wrap;rounded=0;" parent="1" vertex="1">
          <mxGeometry x="30" y="200" width="60" height="30" as="geometry" />
        </mxCell>
        <mxCell id="mMiPT7Uxaxkni7jwJ802-25" value="" style="verticalLabelPosition=bottom;verticalAlign=top;html=1;shadow=0;dashed=0;strokeWidth=1;strokeColor=none;shape=rect;fillColor=#33b5e5;" parent="1" vertex="1">
          <mxGeometry x="600" y="220" width="80" height="10" as="geometry" />
        </mxCell>
        <mxCell id="mMiPT7Uxaxkni7jwJ802-31" value="" style="verticalLabelPosition=bottom;verticalAlign=top;html=1;shadow=0;dashed=0;strokeWidth=1;strokeColor=none;shape=rect;fillColor=#33b5e5;" parent="1" vertex="1">
          <mxGeometry x="450" y="220" width="80" height="10" as="geometry" />
        </mxCell>
        <mxCell id="mMiPT7Uxaxkni7jwJ802-33" value="ny" style="text;html=1;strokeColor=none;fillColor=none;align=center;verticalAlign=middle;whiteSpace=wrap;rounded=0;" parent="1" vertex="1">
          <mxGeometry y="230" width="60" height="30" as="geometry" />
        </mxCell>
        <mxCell id="mMiPT7Uxaxkni7jwJ802-34" value="" style="endArrow=classic;html=1;rounded=0;" parent="1" edge="1">
          <mxGeometry width="50" height="50" relative="1" as="geometry">
            <mxPoint x="80" y="214.5" as="sourcePoint" />
            <mxPoint x="120" y="214.5" as="targetPoint" />
          </mxGeometry>
        </mxCell>
        <mxCell id="mMiPT7Uxaxkni7jwJ802-35" value="" style="endArrow=classic;html=1;rounded=0;exitX=0.5;exitY=1;exitDx=0;exitDy=0;" parent="1" source="mMiPT7Uxaxkni7jwJ802-33" edge="1">
          <mxGeometry width="50" height="50" relative="1" as="geometry">
            <mxPoint x="90" y="224.5" as="sourcePoint" />
            <mxPoint x="30" y="290" as="targetPoint" />
          </mxGeometry>
        </mxCell>
        <mxCell id="mMiPT7Uxaxkni7jwJ802-36" value="m_nx" style="text;html=1;align=center;verticalAlign=middle;resizable=0;points=[];autosize=1;strokeColor=none;fillColor=none;" parent="1" vertex="1">
          <mxGeometry x="270" y="200" width="50" height="30" as="geometry" />
        </mxCell>
        <mxCell id="mMiPT7Uxaxkni7jwJ802-37" value="m_ny" style="text;html=1;align=center;verticalAlign=middle;resizable=0;points=[];autosize=1;strokeColor=none;fillColor=none;" parent="1" vertex="1">
          <mxGeometry x="5" y="420" width="50" height="30" as="geometry" />
        </mxCell>
        <mxCell id="mMiPT7Uxaxkni7jwJ802-38" value="Linear data array to store all data" style="text;html=1;strokeColor=none;fillColor=none;align=center;verticalAlign=middle;whiteSpace=wrap;rounded=0;" parent="1" vertex="1">
          <mxGeometry x="440" y="490" width="330" height="30" as="geometry" />
        </mxCell>
      </root>
    </mxGraphModel>
  </diagram>
  <diagram id="Foc47zMNBFF6I1ExO6dM" name="Page-2">
    <mxGraphModel dx="1434" dy="741" grid="1" gridSize="10" guides="1" tooltips="1" connect="1" arrows="1" fold="1" page="1" pageScale="1" pageWidth="850" pageHeight="1100" math="0" shadow="0">
      <root>
        <mxCell id="0" />
        <mxCell id="1" parent="0" />
        <mxCell id="emXL7kep25v5NdmITZkR-1" value="" style="verticalLabelPosition=bottom;verticalAlign=top;html=1;shape=mxgraph.basic.patternFillRect;fillStyle=grid;step=10;fillStrokeWidth=0.5;fillStrokeColor=#000000;fillColor=#FF951C;" vertex="1" parent="1">
          <mxGeometry x="220" y="190" width="80" height="70" as="geometry" />
        </mxCell>
        <mxCell id="emXL7kep25v5NdmITZkR-2" value="" style="verticalLabelPosition=bottom;verticalAlign=top;html=1;shape=mxgraph.basic.patternFillRect;fillStyle=grid;step=10;fillStrokeWidth=0.5;fillStrokeColor=#dddddd;" vertex="1" parent="1">
          <mxGeometry x="300" y="190" width="80" height="70" as="geometry" />
        </mxCell>
        <mxCell id="emXL7kep25v5NdmITZkR-3" value="" style="verticalLabelPosition=bottom;verticalAlign=top;html=1;shape=mxgraph.basic.patternFillRect;fillStyle=grid;step=10;fillStrokeWidth=0.5;fillStrokeColor=#dddddd;" vertex="1" parent="1">
          <mxGeometry x="380" y="190" width="80" height="70" as="geometry" />
        </mxCell>
        <mxCell id="emXL7kep25v5NdmITZkR-4" value="" style="verticalLabelPosition=bottom;verticalAlign=top;html=1;shape=mxgraph.basic.patternFillRect;fillStyle=grid;step=10;fillStrokeWidth=0.5;fillStrokeColor=#dddddd;" vertex="1" parent="1">
          <mxGeometry x="300" y="260" width="80" height="70" as="geometry" />
        </mxCell>
        <mxCell id="emXL7kep25v5NdmITZkR-5" value="" style="verticalLabelPosition=bottom;verticalAlign=top;html=1;shape=mxgraph.basic.patternFillRect;fillStyle=grid;step=10;fillStrokeWidth=0.5;fillStrokeColor=#dddddd;" vertex="1" parent="1">
          <mxGeometry x="380" y="260" width="80" height="70" as="geometry" />
        </mxCell>
        <mxCell id="emXL7kep25v5NdmITZkR-6" value="" style="verticalLabelPosition=bottom;verticalAlign=top;html=1;shape=mxgraph.basic.patternFillRect;fillStyle=grid;step=10;fillStrokeWidth=0.5;fillStrokeColor=#dddddd;" vertex="1" parent="1">
          <mxGeometry x="380" y="330" width="80" height="70" as="geometry" />
        </mxCell>
        <mxCell id="emXL7kep25v5NdmITZkR-7" value="" style="verticalLabelPosition=bottom;verticalAlign=top;html=1;shape=mxgraph.basic.patternFillRect;fillStyle=grid;step=10;fillStrokeWidth=0.5;fillStrokeColor=#dddddd;" vertex="1" parent="1">
          <mxGeometry x="300" y="330" width="80" height="70" as="geometry" />
        </mxCell>
        <mxCell id="emXL7kep25v5NdmITZkR-8" value="" style="verticalLabelPosition=bottom;verticalAlign=top;html=1;shape=mxgraph.basic.patternFillRect;fillStyle=grid;step=10;fillStrokeWidth=0.5;fillStrokeColor=#dddddd;" vertex="1" parent="1">
          <mxGeometry x="220" y="330" width="80" height="70" as="geometry" />
        </mxCell>
        <mxCell id="emXL7kep25v5NdmITZkR-9" value="" style="verticalLabelPosition=bottom;verticalAlign=top;html=1;shape=mxgraph.basic.patternFillRect;fillStyle=grid;step=10;fillStrokeWidth=0.5;fillStrokeColor=#dddddd;" vertex="1" parent="1">
          <mxGeometry x="220" y="260" width="80" height="70" as="geometry" />
        </mxCell>
        <mxCell id="emXL7kep25v5NdmITZkR-10" value="nx" style="text;html=1;strokeColor=none;fillColor=none;align=center;verticalAlign=middle;whiteSpace=wrap;rounded=0;" vertex="1" parent="1">
          <mxGeometry x="200" y="160" width="60" height="30" as="geometry" />
        </mxCell>
        <mxCell id="emXL7kep25v5NdmITZkR-11" value="" style="endArrow=classic;html=1;rounded=0;" edge="1" parent="1">
          <mxGeometry width="50" height="50" relative="1" as="geometry">
            <mxPoint x="250" y="174.5" as="sourcePoint" />
            <mxPoint x="290" y="174.5" as="targetPoint" />
          </mxGeometry>
        </mxCell>
        <mxCell id="emXL7kep25v5NdmITZkR-12" value="" style="endArrow=classic;html=1;rounded=0;exitX=0.5;exitY=1;exitDx=0;exitDy=0;" edge="1" parent="1">
          <mxGeometry width="50" height="50" relative="1" as="geometry">
            <mxPoint x="200" y="220" as="sourcePoint" />
            <mxPoint x="200" y="250" as="targetPoint" />
          </mxGeometry>
        </mxCell>
        <mxCell id="emXL7kep25v5NdmITZkR-13" value="m_nx" style="text;html=1;align=center;verticalAlign=middle;resizable=0;points=[];autosize=1;strokeColor=none;fillColor=none;" vertex="1" parent="1">
          <mxGeometry x="440" y="160" width="50" height="30" as="geometry" />
        </mxCell>
      </root>
    </mxGraphModel>
  </diagram>
</mxfile>
